<svg width="18" height="18" viewBox="0 0 18 18" fill="none" xmlns="http://www.w3.org/2000/svg">
<path fill-rule="evenodd" clip-rule="evenodd" d="M8.99999 0.666626C4.39762 0.666626 0.666656 4.39759 0.666656 8.99996C0.666656 13.6023 4.39762 17.3333 8.99999 17.3333C13.6024 17.3333 17.3333 13.6023 17.3333 8.99996C17.3333 6.78982 16.4553 4.67021 14.8925 3.1074C13.3297 1.5446 11.2101 0.666626 8.99999 0.666626ZM8.99999 15.6666C5.31809 15.6666 2.33332 12.6819 2.33332 8.99996C2.33332 5.31806 5.31809 2.33329 8.99999 2.33329C12.6819 2.33329 15.6667 5.31806 15.6667 8.99996C15.6667 10.7681 14.9643 12.4638 13.714 13.714C12.4638 14.9642 10.7681 15.6666 8.99999 15.6666ZM11.6 6.07496C11.762 5.91615 12.0213 5.91615 12.1833 6.07496L12.6 6.51663C12.6789 6.59486 12.7232 6.70136 12.7232 6.81246C12.7232 6.92356 12.6789 7.03006 12.6 7.10829L7.91666 11.7916C7.84105 11.8722 7.73548 11.9179 7.62499 11.9179C7.5145 11.9179 7.40893 11.8722 7.33332 11.7916L5.37499 9.81663C5.29611 9.73839 5.25174 9.63189 5.25174 9.52079C5.25174 9.40969 5.29611 9.3032 5.37499 9.22496L5.81666 8.78329C5.89227 8.70273 5.99784 8.65703 6.10832 8.65703C6.21881 8.65703 6.32438 8.70273 6.39999 8.78329L7.64999 10.025L11.6 6.07496Z" fill="#6825C7"/>
</svg>
