<svg width="30" height="30" viewBox="0 0 30 30" fill="none" xmlns="http://www.w3.org/2000/svg">
<path fill-rule="evenodd" clip-rule="evenodd" d="M2.5 15C2.5 8.09644 8.09644 2.5 15 2.5C18.3152 2.5 21.4946 3.81696 23.8388 6.16117C26.183 8.50537 27.5 11.6848 27.5 15C27.5 21.9036 21.9036 27.5 15 27.5C8.09644 27.5 2.5 21.9036 2.5 15ZM5 15C5 20.5228 9.47715 25 15 25C17.6522 25 20.1957 23.9464 22.0711 22.0711C23.9464 20.1957 25 17.6522 25 15C25 9.47715 20.5228 5 15 5C9.47715 5 5 9.47715 5 15ZM16.25 15.625C16.25 15.2798 15.9702 15 15.625 15H14.375C14.0298 15 13.75 15.2798 13.75 15.625V19.375C13.75 19.7202 14.0298 20 14.375 20H15.625C15.9702 20 16.25 19.7202 16.25 19.375V15.625ZM15.625 10C15.9702 10 16.25 10.2798 16.25 10.625V11.875C16.25 12.2202 15.9702 12.5 15.625 12.5H14.375C14.0298 12.5 13.75 12.2202 13.75 11.875V10.625C13.75 10.2798 14.0298 10 14.375 10H15.625Z" fill="#6825C7"/>
</svg>
